<svg xmlns="http://www.w3.org/2000/svg" viewBox="0 0 500 500">
  <path fill="#2D5F4F" d="M262.5 135c-15-5-25 5-35 15-5 5-15 10-20 15-10 10-20 15-25 25-5 5-10 15-15 20-10 15-20 25-25 35-5 10-10 15-10 25 0 5 0 10 5 15 5 10 15 15 25 20 10 5 20 10 30 10 15 5 30 5 45 5 20 0 35-5 50-10 15-5 30-15 40-25 10-10 20-25 25-40 5-15 5-30 5-45 0-15-5-30-10-45-5-10-15-20-30-25-15-5-30-5-45 0-5 0-10 5-10 5zm-45 45c-5 5-5 10 0 15 5 5 10 5 15 0 5-5 5-10 0-15-5-5-10-5-15 0zm55-10c-5 0-10 5-10 10 0 5 5 10 10 10s10-5 10-10c0-5-5-10-10-10zm-80 35c-5 0-10 5-15 10-5 10-10 15-10 25 0 10 5 20 10 25 10 10 20 15 30 15 15 0 25-5 35-15 5-5 10-10 10-15 5-10 5-20 0-25-5-10-15-15-25-20-10-5-20-5-30 0-5 0-5 0-5 0zm-25 50c-5 5-10 15-10 25 0 10 5 20 15 25 10 10 25 10 35 5 15-5 25-15 30-30 5-10 5-25 0-35-5-15-15-25-30-30-15-5-30 0-40 10zm-20 50c-5 0-10 5-10 10 0 10 5 15 10 20 10 5 20 10 30 10 15 0 25-5 35-15 10-10 15-20 15-35 0-10-5-20-10-30-5-10-15-15-25-20-15-5-30-5-45 5zm130-125c5-5 15-15 20-20 10-10 15-20 25-25 10-10 20-15 30-20 15-5 30-10 45-10 20 0 40 5 55 15 15 10 30 25 40 40 10 20 15 40 15 60 0 25-5 50-20 70-10 25-30 45-50 60-25 15-50 25-80 30-25 5-55 5-80 0-30-5-55-15-80-35-20-15-35-35-45-60-10-20-15-45-15-70 0-20 5-40 15-60 10-15 20-30 35-45 15-10 30-20 50-25 15-5 35-10 50-5 20 5 35 15 50 30 10 10 20 25 30 35 5 10 10 20 10 30 0 15-5 25-15 35-10 15-25 25-40 30-20 10-40 10-60 5-20-5-40-20-55-35-15-15-25-35-30-55-5-25-5-50 5-75 10-20 25-40 45-55 20-15 45-25 70-30z"/>
</svg>
